<svg xmlns="http://www.w3.org/2000/svg" xmlns:xlink="http://www.w3.org/1999/xlink" id="svg" width="512" height="512" viewBox="0, 0, 512,512"><script xmlns=""/><g id="svgg"><path id="path0" d="M64.000 256.000 L 64.000 448.000 256.000 448.000 L 448.000 448.000 448.000 256.000 L 448.000 64.000 256.000 64.000 L 64.000 64.000 64.000 256.000 M426.667 256.000 L 426.667 426.667 256.000 426.667 L 85.333 426.667 85.333 256.000 L 85.333 85.333 256.000 85.333 L 426.667 85.333 426.667 256.000 M198.667 169.312 C 187.958 172.915,189.232 339.130,200.000 343.262 C 221.884 351.660,224.000 343.969,224.000 256.051 C 224.000 167.812,222.132 161.417,198.667 169.312 M294.667 169.312 C 283.958 172.915,285.232 339.130,296.000 343.262 C 317.884 351.660,320.000 343.969,320.000 256.051 C 320.000 167.812,318.132 161.417,294.667 169.312 " stroke="none" fill="#040404" fill-rule="evenodd"/></g><script xmlns=""/></svg>