<svg xmlns:xlink="http://www.w3.org/1999/xlink"  xmlns="http://www.w3.org/2000/svg" width="100" height="100" viewBox="0 0 100 100" version="1.1"><script xmlns=""/><path d="" stroke="none" fill="#080404" fill-rule="evenodd"/><path d="M 21.241 25.995 C 14.623 30.029, 14.008 32.330, 14.004 53.050 C 14.001 66.149, 14.353 71.953, 15.200 72.800 C 15.860 73.460, 18.110 74, 20.200 74 C 22.290 74, 24 74.450, 24 75 C 24 75.550, 26.250 76, 29 76 C 31.750 76, 34 75.550, 34 75 C 34 74.375, 40 74, 50 74 C 60 74, 66 74.375, 66 75 C 66 75.550, 68.250 76, 71 76 C 73.750 76, 76 75.550, 76 75 C 76 74.450, 77.710 74, 79.800 74 C 81.890 74, 84.140 73.460, 84.800 72.800 C 85.647 71.953, 85.999 66.149, 85.996 53.050 C 85.992 32.330, 85.377 30.029, 78.759 25.995 C 75.732 24.149, 73.685 24.007, 50 24.007 C 26.315 24.007, 24.268 24.149, 21.241 25.995 M 25.619 27.001 C 21.532 28.272, 18.160 31.766, 17.004 35.926 C 16.458 37.892, 16.009 46.105, 16.006 54.179 C 16.001 66.195, 16.285 69.142, 17.571 70.429 C 18.932 71.789, 23.281 72, 50 72 C 77.367 72, 81.044 71.813, 82.510 70.347 C 84.988 67.869, 84.346 36.695, 81.736 32.717 C 77.827 26.758, 76.697 26.518, 51.547 26.303 C 38.871 26.194, 27.204 26.509, 25.619 27.001 M 31.241 35.995 C 18.233 43.926, 23.794 63.993, 39 63.993 C 54.206 63.993, 59.767 43.926, 46.759 35.995 C 42.481 33.386, 35.519 33.386, 31.241 35.995 M 60 38 C 60 39.833, 60.667 40, 68 40 C 75.333 40, 76 39.833, 76 38 C 76 36.167, 75.333 36, 68 36 C 60.667 36, 60 36.167, 60 38 M 33.432 38.318 C 33.154 39.042, 33.055 44.330, 33.213 50.068 C 33.487 60.025, 33.603 60.515, 35.750 60.820 C 37.977 61.136, 38 61.014, 38 49.070 C 38 37.605, 37.898 37, 35.969 37 C 34.851 37, 33.710 37.593, 33.432 38.318 M 40 49 C 40 61.017, 40.023 61.136, 42.250 60.820 C 44.434 60.509, 44.500 60.165, 44.500 49 C 44.500 37.835, 44.434 37.491, 42.250 37.180 C 40.023 36.864, 40 36.983, 40 49 M 28.614 42.283 C 27.556 43.842, 26.727 46.794, 26.727 49 C 26.727 51.206, 27.556 54.158, 28.614 55.717 C 30.500 58.500, 30.500 58.500, 30.805 53.750 C 30.972 51.138, 30.972 46.862, 30.805 44.250 C 30.500 39.500, 30.500 39.500, 28.614 42.283 M 47 49 C 47 57.057, 47.191 58.087, 48.483 57.014 C 49.298 56.337, 50.387 54.257, 50.902 52.392 C 51.973 48.515, 50.780 42.892, 48.483 40.986 C 47.191 39.913, 47 40.943, 47 49 M 60.389 57.430 C 59.393 60.025, 60.788 62.169, 63.246 61.820 C 64.898 61.585, 65.500 60.833, 65.500 59 C 65.500 57.167, 64.898 56.415, 63.246 56.180 C 61.893 55.988, 60.750 56.488, 60.389 57.430 M 70.389 57.430 C 69.393 60.025, 70.788 62.169, 73.246 61.820 C 74.898 61.585, 75.500 60.833, 75.500 59 C 75.500 57.167, 74.898 56.415, 73.246 56.180 C 71.893 55.988, 70.750 56.488, 70.389 57.430" stroke="none" fill="#040404" fill-rule="evenodd"/><script xmlns=""/></svg>